Coordinates
version=1
nRows=16
nColumns=36
inDegrees=yes

Units are S.I. units (second, meters, Newtons, ...)
If the header above contains a line with 'inDegrees', this indicates whether rotational values are in degrees (yes) or radians (no).

endheader
time	pelvis_tilt	pelvis_list	pelvis_rotation	pelvis_tx	pelvis_ty	pelvis_tz	hip_flexion_r	hip_adduction_r	hip_rotation_r	knee_angle_r	knee_angle_r_beta	ankle_angle_r	subtalar_angle_r	mtp_angle_r	hip_flexion_l	hip_adduction_l	hip_rotation_l	knee_angle_l	knee_angle_l_beta	ankle_angle_l	subtalar_angle_l	mtp_angle_l	lumbar_extension	lumbar_bending	lumbar_rotation	arm_flex_r	arm_add_r	arm_rot_r	elbow_flex_r	pro_sup_r	arm_flex_l	arm_add_l	arm_rot_l	elbow_flex_l	pro_sup_l
      5.25000000	     -6.73954700	      3.50786521	      0.07030535	      0.43459479	      0.96885172	     -0.07540762	      5.79171040	     -7.65633240	     -8.21307818	      6.41499536	      0.11196279	      9.48069179	     -4.39371400	     -7.49999987	      5.35197080	     -7.39747460	     -7.37629495	      4.13341092	      0.07214163	      7.32216610	      0.70074058	     -7.49999987	      3.87732465	     -0.36113153	     -0.43083545	     41.40528730	     12.19141768	     68.86894033	    132.18351789	     93.65367193	     48.96750559	     10.50891733	     68.03125648	    125.95605001	     70.50757654
      5.26666670	     -6.27711834	      3.64685384	     -0.23216924	      0.43279278	      0.97389471	     -0.08029827	      4.52524613	     -7.84613233	     -7.67861833	      5.18480797	      0.09049197	      8.78924896	     -4.57198314	     -7.49999987	      4.23140095	     -6.93787962	     -7.37905304	      3.40691722	      0.05946192	      7.24257724	      0.42136177	     -7.49999987	      3.63971424	     -0.09157557	      0.11849104	     39.48786118	     11.27441708	     69.92268116	    131.71191306	     93.77606891	     46.52865020	      9.98310157	     68.62931617	    125.59303693	     70.36336546
      5.28333330	     -5.59026332	      3.74977571	     -0.51848507	      0.43797972	      0.97137853	     -0.07901230	      3.06414495	     -7.98804212	     -6.94653996	      4.19059037	      0.07313960	      8.45714467	     -4.81795524	     -7.49999987	      2.93170764	     -6.64323084	     -7.27711703	      2.96570107	      0.05176125	      7.46100431	      0.25758823	     -7.49999987	      3.24770482	      0.09434603	      0.46928321	     37.89059683	     10.31168789	     70.04850182	    131.61329646	     93.91089880	     44.39799803	      9.85657640	     68.95920794	    125.75129447	     70.33197843
      5.30000000	     -5.06486480	      3.79109206	     -0.76088062	      0.43803877	      0.96665070	     -0.07852537	      2.05803190	     -8.07634787	     -6.22979278	      3.59669285	      0.06277413	      8.32915377	     -5.37288673	     -7.49999987	      2.00070667	     -6.43149460	     -7.13075542	      2.75205377	      0.04803240	      7.80132357	      0.01369828	     -7.49999987	      2.87708514	      0.31177780	      0.72727430	     36.64405713	      9.75295124	     69.77956279	    131.68373577	     94.80045870	     42.79345367	      9.79905663	     69.15060427	    125.74020032	     71.10623840
      5.31666670	     -4.42025413	      3.86173503	     -0.71089338	      0.44386437	      0.97424205	     -0.07254834	      0.73060977	     -8.02059500	     -5.69561082	      2.88457953	      0.05034541	      8.29181821	     -5.56814730	     -7.49999987	      0.95868070	     -6.38277354	     -6.93629740	      2.50133066	      0.04365646	      7.72304905	     -0.03883532	     -7.49999987	      2.68318431	      0.20521800	      1.13797734	     35.34991976	      9.53552907	     69.68917528	    130.88075087	     94.77226300	     41.33867747	      9.63886006	     69.66348864	    125.69288836	     71.21500050
      5.33333330	     -3.98624589	      3.89561016	     -0.63954140	      0.44375267	      0.96955118	     -0.07306020	     -0.18335149	     -7.94096760	     -5.18279437	      2.48133858	      0.04330753	      8.20013825	     -6.27749582	     -7.49999987	      0.28477923	     -6.37854306	     -6.92617036	      2.38961303	      0.04170662	      7.96967025	      0.02670807	     -7.49999987	      2.72404905	      0.24523262	      1.44799239	     34.04087019	      9.68465336	     69.43359891	    129.96569509	     94.77015594	     40.52018315	      9.67653773	     69.91482298	    125.68577569	     71.24730836
      5.35000000	     -3.56310019	      3.90203541	     -0.29775925	      0.44362594	      0.96610232	     -0.07368413	     -0.94648716	     -7.80780598	     -4.88983348	      2.31759831	      0.04044972	      8.32347144	     -7.16287014	     -7.49999987	     -0.20817814	     -6.40566014	     -6.56161674	      2.38666295	      0.04165513	      8.03680045	     -0.27697055	     -7.49999987	      2.72117144	      0.19438375	      1.74694759	     33.10521752	      9.90744156	     68.38928096	    129.71406483	     94.88964828	     40.36449416	     10.04644369	     69.99818452	    125.57378732	     71.80687016
      5.36666670	     -3.20513180	      3.96770892	     -0.02593935	      0.44290125	      0.97475748	     -0.07301352	     -1.49028669	     -7.75484046	     -4.73850181	      2.21656449	      0.03868635	      8.27619256	     -7.70125798	     -7.49999987	     -0.58827247	     -6.39375710	     -6.37141596	      2.32011141	      0.04049358	      7.84069376	     -0.20859527	     -7.49999987	      2.62884521	      0.08671980	      2.09029932	     32.33508246	      9.96504927	     67.53923035	    129.20240221	     93.20440393	     40.16334325	      9.76487057	     69.85570132	    125.50316514	     71.05315440
      5.38333330	     -2.94764874	      4.03343438	      0.27412016	      0.44418099	      0.98174396	     -0.07572534	     -1.92742162	     -7.77526898	     -4.81161058	      2.07992806	      0.03630159	      8.11625887	     -7.79373731	     -7.49999987	     -0.83268787	     -6.32739276	     -6.25031969	      2.26015689	      0.03944718	      7.37903580	      0.01106188	     -7.49999987	      2.50295102	      0.01314991	      2.22285377	     31.60805715	      9.84470825	     67.03797761	    128.85610478	     93.27883684	     39.76564402	      9.39004755	     69.98150858	    125.37003168	     71.07811750
      5.40000000	     -2.52635088	      4.06417704	      0.53600153	      0.44384062	      0.98144187	     -0.07569229	     -2.49303259	     -7.75385914	     -4.75545267	      1.96297917	      0.03426045	      7.72157303	     -8.26495606	     -7.49999987	     -1.28586737	     -6.28002168	     -6.12845435	      2.12110909	      0.03702034	      7.11997792	      0.27580943	     -7.49999987	      2.12767174	     -0.09077297	      2.53284353	     31.35882488	      9.95309726	     65.46277299	    128.74605919	     95.77217758	     39.86612035	      9.27245282	     69.86490215	    125.08933888	     71.64013574
      5.41666670	     -2.21475140	      4.08816777	      0.66926835	      0.44312798	      0.98127835	     -0.07634454	     -2.80633213	     -7.77380861	     -4.71285891	      2.00232977	      0.03494725	      7.44109440	     -8.60384663	     -7.49999987	     -1.62064473	     -6.22634142	     -6.09280577	      2.01551875	      0.03517744	      6.93631695	      0.59741880	     -7.49999987	      1.74940022	     -0.19547757	      2.69398278	     31.65183654	      9.92513526	     64.61626312	    128.99743465	     95.36060749	     40.02913901	      9.04082146	     69.74502460	    124.98250390	     71.60078195
      5.43333330	     -1.94006768	      4.11901635	      0.80334575	      0.43976015	      0.97737087	     -0.07974446	     -2.93884965	     -7.88465335	     -4.74339999	      2.20203633	      0.03843278	      7.34171385	     -8.96698997	     -7.49999987	     -1.83086259	     -6.09209386	     -5.96638092	      1.93521957	      0.03377595	      6.93224937	      0.60120648	     -7.49999987	      1.31613446	     -0.20420997	      2.76349689	     32.22338350	     10.01297035	     63.91003808	    129.37022512	     96.11721746	     40.61476072	      9.31199685	     69.46552129	    124.77684193	     72.28940202
      5.45000000	     -1.89473950	      4.14015498	      0.92323180	      0.44293844	      0.97779374	     -0.07736429	     -2.91668125	     -7.91898081	     -4.78859191	      2.31652491	      0.04043099	      7.45801346	     -9.09287873	     -7.49999987	     -1.87990586	     -6.05569464	     -5.76736146	      1.86361956	      0.03252630	      6.97616084	      0.70646823	     -7.49999987	      1.29650236	     -0.30053761	      2.79409838	     32.69264000	     10.31537609	     63.76667868	    129.50391990	     96.12973951	     41.00508438	      9.46934127	     69.30969020	    124.77045189	     72.29650845
      5.46666670	     -1.47845748	      4.08675447	      0.94542805	      0.44286788	      0.97692049	     -0.07721936	     -3.22736486	     -7.89372228	     -4.65893397	      2.48283033	      0.04333356	      7.47571430	     -9.45560654	     -7.49999987	     -2.32334191	     -6.10647446	     -5.60377311	      1.82032954	      0.03177074	      7.19424439	      0.76418920	     -7.49999987	      0.73172441	     -0.35406131	      2.77300870	     33.29042348	     10.53860749	     63.87253511	    129.86095654	     97.19680270	     41.75268508	      9.63154678	     69.13729181	    124.63577312	     72.83431839
      5.48333330	     -1.29619647	      4.02565298	      0.98131973	      0.44278720	      0.97342505	     -0.07794503	     -3.32770177	     -7.83663822	     -4.48534056	      2.68197539	      0.04680930	      7.48468782	     -9.89552948	     -7.49999987	     -2.56311352	     -6.18693341	     -5.41254300	      1.76497691	      0.03080466	      7.41543478	      0.72220642	     -7.49999987	      0.61773170	     -0.37526694	      2.75883257	     33.60275851	     10.80908480	     63.77102794	    129.97227359	     97.59609736	     42.28803830	      9.68514762	     68.82855464	    124.54984889	     72.90329459
      5.50000000	     -1.16314312	      3.98467344	      0.89664655	      0.44543208	      0.97238665	     -0.08003181	     -3.44583862	     -7.85616926	     -4.29858047	      2.81155010	      0.04907081	      7.53613290	    -10.15100192	     -7.49999987	     -2.81989355	     -6.21657711	     -5.41224913	      1.71014089	      0.02984759	      7.74839986	      0.82728582	     -7.49999987	      0.71484035	     -0.30562059	      2.62621855	     33.88333854	     11.08714599	     63.88535094	    130.21905208	     94.84998093	     42.66510574	      9.68830729	     68.53383511	    124.45472859	     71.78258321
